<mxfile host="app.diagrams.net" modified="2024-06-09T20:27:14.771Z" agent="Mozilla/5.0 (Windows NT 10.0; Win64; x64) AppleWebKit/537.36 (KHTML, like Gecko) Chrome/124.0.0.0 Safari/537.36" etag="iRghOQIInRFVYtFG3s9Y" version="24.5.2" type="onedrive">
  <diagram name="PÃ¡gina-1" id="y7ePDIn5glFT4pbu17K2">
    <mxGraphModel grid="1" page="1" gridSize="10" guides="1" tooltips="1" connect="1" arrows="1" fold="1" pageScale="1" pageWidth="827" pageHeight="1169" math="0" shadow="0">
      <root>
        <mxCell id="0" />
        <mxCell id="1" parent="0" />
        <mxCell id="Xk5Clc4Wt-X5QIzoGa22-1" value="" style="swimlane;startSize=0;fillColor=#3399ff;strokeColor=#004C99;gradientColor=default;swimlaneFillColor=#3399FF;" vertex="1" parent="1">
          <mxGeometry x="560" y="180" width="740" height="640" as="geometry" />
        </mxCell>
        <mxCell id="Xk5Clc4Wt-X5QIzoGa22-2" value="&lt;b&gt;Boards&lt;/b&gt;" style="text;html=1;align=center;verticalAlign=middle;resizable=0;points=[];autosize=1;strokeColor=none;fillColor=none;fontSize=16;" vertex="1" parent="Xk5Clc4Wt-X5QIzoGa22-1">
          <mxGeometry x="438" y="10" width="80" height="30" as="geometry" />
        </mxCell>
        <mxCell id="Xk5Clc4Wt-X5QIzoGa22-3" value="&lt;font style=&quot;font-size: 12px;&quot;&gt;&amp;lt;&amp;lt;component&amp;gt;&amp;gt;&lt;/font&gt;" style="text;html=1;align=center;verticalAlign=middle;resizable=0;points=[];autosize=1;strokeColor=none;fillColor=none;fontSize=16;" vertex="1" parent="Xk5Clc4Wt-X5QIzoGa22-1">
          <mxGeometry x="423.37" y="-10" width="110" height="30" as="geometry" />
        </mxCell>
        <mxCell id="Xk5Clc4Wt-X5QIzoGa22-4" value="" style="rounded=0;whiteSpace=wrap;html=1;fillColor=#66B2FF;strokeColor=#6c8ebf;" vertex="1" parent="Xk5Clc4Wt-X5QIzoGa22-1">
          <mxGeometry x="37" y="60" width="633" height="160" as="geometry" />
        </mxCell>
        <mxCell id="Xk5Clc4Wt-X5QIzoGa22-5" value="" style="shape=module;jettyWidth=10;jettyHeight=4;fillColor=#57BCFF;" vertex="1" parent="Xk5Clc4Wt-X5QIzoGa22-1">
          <mxGeometry x="640" y="70" width="18.38" height="20" as="geometry" />
        </mxCell>
        <mxCell id="Xk5Clc4Wt-X5QIzoGa22-6" value="" style="rounded=0;whiteSpace=wrap;html=1;fillColor=#66B2FF;strokeColor=#6c8ebf;" vertex="1" parent="Xk5Clc4Wt-X5QIzoGa22-1">
          <mxGeometry x="37" y="495" width="183" height="125" as="geometry" />
        </mxCell>
        <mxCell id="Xk5Clc4Wt-X5QIzoGa22-7" value="&lt;font style=&quot;font-size: 12px;&quot;&gt;&amp;lt;&amp;lt;component&amp;gt;&amp;gt;&lt;/font&gt;" style="text;html=1;align=center;verticalAlign=middle;resizable=0;points=[];autosize=1;strokeColor=none;fillColor=none;fontSize=16;" vertex="1" parent="Xk5Clc4Wt-X5QIzoGa22-1">
          <mxGeometry x="70" y="495" width="110" height="30" as="geometry" />
        </mxCell>
        <mxCell id="Xk5Clc4Wt-X5QIzoGa22-8" value="" style="shape=module;jettyWidth=10;jettyHeight=4;fillColor=#57BCFF;" vertex="1" parent="Xk5Clc4Wt-X5QIzoGa22-1">
          <mxGeometry x="190" y="510" width="18.38" height="20" as="geometry" />
        </mxCell>
        <mxCell id="Xk5Clc4Wt-X5QIzoGa22-9" value="" style="fontStyle=1;align=center;verticalAlign=top;childLayout=stackLayout;horizontal=1;horizontalStack=0;resizeParent=1;resizeParentMax=0;resizeLast=0;marginBottom=0;fontColor=none;noLabel=1;fillColor=#57BCFF;" vertex="1" parent="Xk5Clc4Wt-X5QIzoGa22-1">
          <mxGeometry x="100" y="-11" width="23.26" height="21" as="geometry" />
        </mxCell>
        <mxCell id="Xk5Clc4Wt-X5QIzoGa22-10" value="" style="rounded=0;whiteSpace=wrap;html=1;fillColor=#66B2FF;strokeColor=#6c8ebf;" vertex="1" parent="Xk5Clc4Wt-X5QIzoGa22-1">
          <mxGeometry x="480" y="520" width="150" height="110" as="geometry" />
        </mxCell>
        <mxCell id="Xk5Clc4Wt-X5QIzoGa22-11" value="&lt;font style=&quot;font-size: 12px;&quot;&gt;&amp;lt;&amp;lt;component&amp;gt;&amp;gt;&lt;/font&gt;" style="text;html=1;align=center;verticalAlign=middle;resizable=0;points=[];autosize=1;strokeColor=none;fillColor=none;fontSize=16;" vertex="1" parent="Xk5Clc4Wt-X5QIzoGa22-1">
          <mxGeometry x="490" y="520" width="110" height="30" as="geometry" />
        </mxCell>
        <mxCell id="Xk5Clc4Wt-X5QIzoGa22-12" value="" style="shape=module;jettyWidth=10;jettyHeight=4;fillColor=#57BCFF;" vertex="1" parent="Xk5Clc4Wt-X5QIzoGa22-1">
          <mxGeometry x="610" y="530" width="18.38" height="20" as="geometry" />
        </mxCell>
        <mxCell id="Xk5Clc4Wt-X5QIzoGa22-13" style="edgeStyle=orthogonalEdgeStyle;rounded=0;orthogonalLoop=1;jettySize=auto;html=1;endArrow=halfCircle;endFill=0;entryX=0.5;entryY=1;entryDx=0;entryDy=0;exitX=0;exitY=0.5;exitDx=0;exitDy=0;" edge="1" parent="Xk5Clc4Wt-X5QIzoGa22-1" source="Xk5Clc4Wt-X5QIzoGa22-43" target="Xk5Clc4Wt-X5QIzoGa22-14">
          <mxGeometry relative="1" as="geometry">
            <mxPoint x="263.68" y="230" as="sourcePoint" />
            <mxPoint x="248.68" y="110" as="targetPoint" />
            <Array as="points" />
          </mxGeometry>
        </mxCell>
        <mxCell id="Xk5Clc4Wt-X5QIzoGa22-14" value="" style="ellipse;whiteSpace=wrap;html=1;aspect=fixed;fillColor=#57BCFF;" vertex="1" parent="Xk5Clc4Wt-X5QIzoGa22-1">
          <mxGeometry x="435" y="419.99999999999994" width="23.68421052631579" height="23.68421052631579" as="geometry" />
        </mxCell>
        <mxCell id="Xk5Clc4Wt-X5QIzoGa22-15" style="edgeStyle=orthogonalEdgeStyle;rounded=0;orthogonalLoop=1;jettySize=auto;html=1;exitX=0.5;exitY=0;exitDx=0;exitDy=0;entryX=0.5;entryY=1;entryDx=0;entryDy=0;endArrow=none;endFill=0;" edge="1" parent="Xk5Clc4Wt-X5QIzoGa22-1" target="Xk5Clc4Wt-X5QIzoGa22-44">
          <mxGeometry relative="1" as="geometry">
            <mxPoint x="447.8421052631579" y="420" as="sourcePoint" />
            <mxPoint x="442.6300000000001" y="231" as="targetPoint" />
            <Array as="points">
              <mxPoint x="448" y="410" />
              <mxPoint x="450" y="410" />
            </Array>
          </mxGeometry>
        </mxCell>
        <mxCell id="Xk5Clc4Wt-X5QIzoGa22-16" value="" style="ellipse;whiteSpace=wrap;html=1;aspect=fixed;fillColor=#57BCFF;" vertex="1" parent="Xk5Clc4Wt-X5QIzoGa22-1">
          <mxGeometry x="116.65999999999997" y="360" width="23.68421052631579" height="23.68421052631579" as="geometry" />
        </mxCell>
        <mxCell id="Xk5Clc4Wt-X5QIzoGa22-17" style="edgeStyle=orthogonalEdgeStyle;rounded=0;orthogonalLoop=1;jettySize=auto;html=1;endArrow=none;endFill=0;entryX=0.5;entryY=0;entryDx=0;entryDy=0;exitX=0.5;exitY=1;exitDx=0;exitDy=0;" edge="1" parent="Xk5Clc4Wt-X5QIzoGa22-1" source="Xk5Clc4Wt-X5QIzoGa22-16" target="Xk5Clc4Wt-X5QIzoGa22-35">
          <mxGeometry relative="1" as="geometry">
            <mxPoint x="114.5" y="193.68" as="sourcePoint" />
            <mxPoint x="115" y="210" as="targetPoint" />
            <Array as="points" />
          </mxGeometry>
        </mxCell>
        <mxCell id="Xk5Clc4Wt-X5QIzoGa22-18" style="edgeStyle=orthogonalEdgeStyle;rounded=0;orthogonalLoop=1;jettySize=auto;html=1;endArrow=halfCircle;endFill=0;entryX=0.5;entryY=0;entryDx=0;entryDy=0;exitX=0.5;exitY=1;exitDx=0;exitDy=0;" edge="1" parent="Xk5Clc4Wt-X5QIzoGa22-1" source="Xk5Clc4Wt-X5QIzoGa22-40" target="Xk5Clc4Wt-X5QIzoGa22-16">
          <mxGeometry relative="1" as="geometry">
            <mxPoint x="115" y="-69" as="sourcePoint" />
            <mxPoint x="106.84421052631956" y="171.84210526315792" as="targetPoint" />
            <Array as="points" />
          </mxGeometry>
        </mxCell>
        <mxCell id="Xk5Clc4Wt-X5QIzoGa22-19" value="&lt;b&gt;Mongo DB API&lt;/b&gt;" style="text;html=1;align=center;verticalAlign=middle;resizable=0;points=[];autosize=1;strokeColor=none;fillColor=none;" vertex="1" parent="Xk5Clc4Wt-X5QIzoGa22-1">
          <mxGeometry x="133.68" y="356.84000000000003" width="110" height="30" as="geometry" />
        </mxCell>
        <mxCell id="Xk5Clc4Wt-X5QIzoGa22-20" style="edgeStyle=orthogonalEdgeStyle;rounded=0;orthogonalLoop=1;jettySize=auto;html=1;exitX=0.5;exitY=1;exitDx=0;exitDy=0;endArrow=none;endFill=0;entryX=0.5;entryY=0;entryDx=0;entryDy=0;" edge="1" parent="Xk5Clc4Wt-X5QIzoGa22-1" source="Xk5Clc4Wt-X5QIzoGa22-9" target="Xk5Clc4Wt-X5QIzoGa22-45">
          <mxGeometry relative="1" as="geometry">
            <mxPoint x="122" y="-66" as="sourcePoint" />
            <mxPoint x="122" y="-1" as="targetPoint" />
            <Array as="points" />
          </mxGeometry>
        </mxCell>
        <mxCell id="Xk5Clc4Wt-X5QIzoGa22-21" value="&lt;font style=&quot;font-size: 12px;&quot;&gt;&amp;lt;&amp;lt;component&amp;gt;&amp;gt;&lt;/font&gt;" style="text;html=1;align=center;verticalAlign=middle;resizable=0;points=[];autosize=1;strokeColor=none;fillColor=none;fontSize=16;" vertex="1" parent="Xk5Clc4Wt-X5QIzoGa22-1">
          <mxGeometry x="400" y="50" width="110" height="30" as="geometry" />
        </mxCell>
        <mxCell id="Xk5Clc4Wt-X5QIzoGa22-26" value="&lt;b&gt;Mongo DB&lt;/b&gt;" style="rounded=0;whiteSpace=wrap;html=1;fillColor=#66B2FF;strokeColor=#000000;" vertex="1" parent="Xk5Clc4Wt-X5QIzoGa22-1">
          <mxGeometry x="70" y="560" width="120" height="50" as="geometry" />
        </mxCell>
        <mxCell id="Xk5Clc4Wt-X5QIzoGa22-27" value="&lt;font style=&quot;font-size: 12px;&quot;&gt;&amp;lt;&amp;lt;component&amp;gt;&amp;gt;&lt;/font&gt;" style="text;html=1;align=center;verticalAlign=middle;resizable=0;points=[];autosize=1;strokeColor=none;fillColor=none;fontSize=16;" vertex="1" parent="Xk5Clc4Wt-X5QIzoGa22-1">
          <mxGeometry x="73.5" y="550" width="110" height="30" as="geometry" />
        </mxCell>
        <mxCell id="Xk5Clc4Wt-X5QIzoGa22-28" value="&lt;b&gt;Mongo DB Container&lt;/b&gt;" style="text;html=1;align=center;verticalAlign=middle;resizable=0;points=[];autosize=1;strokeColor=none;fillColor=none;" vertex="1" parent="Xk5Clc4Wt-X5QIzoGa22-1">
          <mxGeometry x="58.5" y="520" width="140" height="30" as="geometry" />
        </mxCell>
        <mxCell id="Xk5Clc4Wt-X5QIzoGa22-29" value="" style="shape=module;jettyWidth=10;jettyHeight=4;fillColor=#57BCFF;" vertex="1" parent="Xk5Clc4Wt-X5QIzoGa22-1">
          <mxGeometry x="168.62" y="570" width="18.38" height="20" as="geometry" />
        </mxCell>
        <mxCell id="Xk5Clc4Wt-X5QIzoGa22-30" value="&lt;b&gt;Azure Fluid Relay&lt;/b&gt;" style="text;html=1;align=center;verticalAlign=middle;resizable=0;points=[];autosize=1;strokeColor=none;fillColor=none;" vertex="1" parent="Xk5Clc4Wt-X5QIzoGa22-1">
          <mxGeometry x="485" y="540" width="120" height="30" as="geometry" />
        </mxCell>
        <mxCell id="Xk5Clc4Wt-X5QIzoGa22-32" value="&lt;b&gt;Storage&lt;/b&gt;" style="rounded=0;whiteSpace=wrap;html=1;fillColor=#66B2FF;strokeColor=#000000;" vertex="1" parent="Xk5Clc4Wt-X5QIzoGa22-1">
          <mxGeometry x="490" y="570" width="120" height="50" as="geometry" />
        </mxCell>
        <mxCell id="Xk5Clc4Wt-X5QIzoGa22-33" value="&lt;font style=&quot;font-size: 12px;&quot;&gt;&amp;lt;&amp;lt;component&amp;gt;&amp;gt;&lt;/font&gt;" style="text;html=1;align=center;verticalAlign=middle;resizable=0;points=[];autosize=1;strokeColor=none;fillColor=none;fontSize=16;" vertex="1" parent="Xk5Clc4Wt-X5QIzoGa22-1">
          <mxGeometry x="495" y="560" width="110" height="30" as="geometry" />
        </mxCell>
        <mxCell id="Xk5Clc4Wt-X5QIzoGa22-34" value="" style="shape=module;jettyWidth=10;jettyHeight=4;fillColor=#57BCFF;" vertex="1" parent="Xk5Clc4Wt-X5QIzoGa22-1">
          <mxGeometry x="586.6199999999999" y="575" width="18.38" height="20" as="geometry" />
        </mxCell>
        <mxCell id="Xk5Clc4Wt-X5QIzoGa22-35" value="" style="fontStyle=1;align=center;verticalAlign=top;childLayout=stackLayout;horizontal=1;horizontalStack=0;resizeParent=1;resizeParentMax=0;resizeLast=0;marginBottom=0;fontColor=none;noLabel=1;fillColor=#57BCFF;" vertex="1" parent="Xk5Clc4Wt-X5QIzoGa22-1">
          <mxGeometry x="118.37" y="480" width="23.26" height="21" as="geometry" />
        </mxCell>
        <mxCell id="Xk5Clc4Wt-X5QIzoGa22-40" value="" style="fontStyle=1;align=center;verticalAlign=top;childLayout=stackLayout;horizontal=1;horizontalStack=0;resizeParent=1;resizeParentMax=0;resizeLast=0;marginBottom=0;fontColor=none;noLabel=1;fillColor=#57BCFF;" vertex="1" parent="Xk5Clc4Wt-X5QIzoGa22-1">
          <mxGeometry x="100.58000000000004" y="210" width="23.26" height="21" as="geometry" />
        </mxCell>
        <mxCell id="Xk5Clc4Wt-X5QIzoGa22-43" value="" style="fontStyle=1;align=center;verticalAlign=top;childLayout=stackLayout;horizontal=1;horizontalStack=0;resizeParent=1;resizeParentMax=0;resizeLast=0;marginBottom=0;fontColor=none;noLabel=1;fillColor=#57BCFF;" vertex="1" parent="Xk5Clc4Wt-X5QIzoGa22-1">
          <mxGeometry x="466.74" y="547" width="23.26" height="21" as="geometry" />
        </mxCell>
        <mxCell id="Xk5Clc4Wt-X5QIzoGa22-44" value="" style="fontStyle=1;align=center;verticalAlign=top;childLayout=stackLayout;horizontal=1;horizontalStack=0;resizeParent=1;resizeParentMax=0;resizeLast=0;marginBottom=0;fontColor=none;noLabel=1;fillColor=#57BCFF;" vertex="1" parent="Xk5Clc4Wt-X5QIzoGa22-1">
          <mxGeometry x="438" y="210" width="23.26" height="21" as="geometry" />
        </mxCell>
        <mxCell id="Xk5Clc4Wt-X5QIzoGa22-42" value="&lt;b&gt;Boards&lt;/b&gt;" style="text;html=1;align=center;verticalAlign=middle;resizable=0;points=[];autosize=1;strokeColor=none;fillColor=none;" vertex="1" parent="Xk5Clc4Wt-X5QIzoGa22-1">
          <mxGeometry x="420" y="70" width="60" height="30" as="geometry" />
        </mxCell>
        <mxCell id="Xk5Clc4Wt-X5QIzoGa22-45" value="" style="fontStyle=1;align=center;verticalAlign=top;childLayout=stackLayout;horizontal=1;horizontalStack=0;resizeParent=1;resizeParentMax=0;resizeLast=0;marginBottom=0;fontColor=none;noLabel=1;fillColor=#57BCFF;" vertex="1" parent="Xk5Clc4Wt-X5QIzoGa22-1">
          <mxGeometry x="330" y="49" width="23.26" height="21" as="geometry" />
        </mxCell>
        <mxCell id="Xk5Clc4Wt-X5QIzoGa22-47" value="&lt;b&gt;Server&lt;/b&gt;" style="rounded=0;whiteSpace=wrap;html=1;fillColor=#66B2FF;strokeColor=#000000;" vertex="1" parent="Xk5Clc4Wt-X5QIzoGa22-1">
          <mxGeometry x="73.5" y="100" width="120" height="50" as="geometry" />
        </mxCell>
        <mxCell id="Xk5Clc4Wt-X5QIzoGa22-48" value="&lt;b&gt;Client&lt;/b&gt;" style="rounded=0;whiteSpace=wrap;html=1;fillColor=#66B2FF;strokeColor=#000000;" vertex="1" parent="Xk5Clc4Wt-X5QIzoGa22-1">
          <mxGeometry x="420" y="110" width="120" height="50" as="geometry" />
        </mxCell>
        <mxCell id="Xk5Clc4Wt-X5QIzoGa22-50" value="" style="fontStyle=1;align=center;verticalAlign=top;childLayout=stackLayout;horizontal=1;horizontalStack=0;resizeParent=1;resizeParentMax=0;resizeLast=0;marginBottom=0;fontColor=none;noLabel=1;fillColor=#57BCFF;" vertex="1" parent="Xk5Clc4Wt-X5QIzoGa22-1">
          <mxGeometry x="183.5" y="114.5" width="23.26" height="21" as="geometry" />
        </mxCell>
        <mxCell id="Xk5Clc4Wt-X5QIzoGa22-49" value="" style="fontStyle=1;align=center;verticalAlign=top;childLayout=stackLayout;horizontal=1;horizontalStack=0;resizeParent=1;resizeParentMax=0;resizeLast=0;marginBottom=0;fontColor=none;noLabel=1;fillColor=#57BCFF;" vertex="1" parent="Xk5Clc4Wt-X5QIzoGa22-1">
          <mxGeometry x="411.74" y="124.5" width="23.26" height="21" as="geometry" />
        </mxCell>
        <mxCell id="Xk5Clc4Wt-X5QIzoGa22-52" value="" style="fontStyle=1;align=center;verticalAlign=top;childLayout=stackLayout;horizontal=1;horizontalStack=0;resizeParent=1;resizeParentMax=0;resizeLast=0;marginBottom=0;fontColor=none;noLabel=1;fillColor=#57BCFF;" vertex="1" parent="Xk5Clc4Wt-X5QIzoGa22-1">
          <mxGeometry x="100" y="139" width="23.26" height="21" as="geometry" />
        </mxCell>
        <mxCell id="Xk5Clc4Wt-X5QIzoGa22-51" value="" style="fontStyle=1;align=center;verticalAlign=top;childLayout=stackLayout;horizontal=1;horizontalStack=0;resizeParent=1;resizeParentMax=0;resizeLast=0;marginBottom=0;fontColor=none;noLabel=1;fillColor=#57BCFF;" vertex="1" parent="Xk5Clc4Wt-X5QIzoGa22-1">
          <mxGeometry x="466.74" y="100" width="23.26" height="21" as="geometry" />
        </mxCell>
        <mxCell id="Xk5Clc4Wt-X5QIzoGa22-53" value="" style="fontStyle=1;align=center;verticalAlign=top;childLayout=stackLayout;horizontal=1;horizontalStack=0;resizeParent=1;resizeParentMax=0;resizeLast=0;marginBottom=0;fontColor=none;noLabel=1;fillColor=#57BCFF;" vertex="1" parent="Xk5Clc4Wt-X5QIzoGa22-1">
          <mxGeometry x="461.74" y="145.5" width="23.26" height="21" as="geometry" />
        </mxCell>
        <mxCell id="Xk5Clc4Wt-X5QIzoGa22-55" style="edgeStyle=orthogonalEdgeStyle;rounded=0;orthogonalLoop=1;jettySize=auto;html=1;endArrow=none;endFill=0;entryX=0.5;entryY=0;entryDx=0;entryDy=0;exitX=0.5;exitY=1;exitDx=0;exitDy=0;" edge="1" parent="Xk5Clc4Wt-X5QIzoGa22-1" source="Xk5Clc4Wt-X5QIzoGa22-53" target="Xk5Clc4Wt-X5QIzoGa22-44">
          <mxGeometry relative="1" as="geometry">
            <mxPoint x="139" y="394" as="sourcePoint" />
            <mxPoint x="140" y="490" as="targetPoint" />
            <Array as="points" />
          </mxGeometry>
        </mxCell>
        <mxCell id="Xk5Clc4Wt-X5QIzoGa22-58" value="&lt;b&gt;Azure API&lt;/b&gt;" style="text;html=1;align=center;verticalAlign=middle;resizable=0;points=[];autosize=1;strokeColor=none;fillColor=none;" vertex="1" parent="Xk5Clc4Wt-X5QIzoGa22-1">
          <mxGeometry x="453.37" y="416.84000000000003" width="80" height="30" as="geometry" />
        </mxCell>
        <mxCell id="Xk5Clc4Wt-X5QIzoGa22-60" style="edgeStyle=orthogonalEdgeStyle;rounded=0;orthogonalLoop=1;jettySize=auto;html=1;endArrow=halfCircle;endFill=0;exitX=1;exitY=0.5;exitDx=0;exitDy=0;entryX=0;entryY=0.5;entryDx=0;entryDy=0;" edge="1" parent="Xk5Clc4Wt-X5QIzoGa22-1" source="Xk5Clc4Wt-X5QIzoGa22-50" target="Xk5Clc4Wt-X5QIzoGa22-61">
          <mxGeometry relative="1" as="geometry">
            <mxPoint x="122" y="241" as="sourcePoint" />
            <mxPoint x="139" y="370" as="targetPoint" />
            <Array as="points" />
          </mxGeometry>
        </mxCell>
        <mxCell id="Xk5Clc4Wt-X5QIzoGa22-61" value="" style="ellipse;whiteSpace=wrap;html=1;aspect=fixed;fillColor=#57BCFF;" vertex="1" parent="Xk5Clc4Wt-X5QIzoGa22-1">
          <mxGeometry x="330" y="121" width="23.68421052631579" height="23.68421052631579" as="geometry" />
        </mxCell>
        <mxCell id="Xk5Clc4Wt-X5QIzoGa22-59" style="edgeStyle=orthogonalEdgeStyle;rounded=0;orthogonalLoop=1;jettySize=auto;html=1;endArrow=none;endFill=0;entryX=0;entryY=0.5;entryDx=0;entryDy=0;exitX=1;exitY=0.5;exitDx=0;exitDy=0;" edge="1" parent="Xk5Clc4Wt-X5QIzoGa22-1" source="Xk5Clc4Wt-X5QIzoGa22-61" target="Xk5Clc4Wt-X5QIzoGa22-49">
          <mxGeometry relative="1" as="geometry">
            <mxPoint x="159" y="414" as="sourcePoint" />
            <mxPoint x="160" y="510" as="targetPoint" />
            <Array as="points" />
          </mxGeometry>
        </mxCell>
        <mxCell id="Xk5Clc4Wt-X5QIzoGa22-62" value="&lt;b&gt;App API&lt;/b&gt;" style="text;html=1;align=center;verticalAlign=middle;resizable=0;points=[];autosize=1;strokeColor=none;fillColor=none;" vertex="1" parent="Xk5Clc4Wt-X5QIzoGa22-1">
          <mxGeometry x="300" y="150" width="70" height="30" as="geometry" />
        </mxCell>
        <mxCell id="Xk5Clc4Wt-X5QIzoGa22-63" style="edgeStyle=orthogonalEdgeStyle;rounded=0;orthogonalLoop=1;jettySize=auto;html=1;endArrow=none;endFill=0;entryX=0;entryY=0;entryDx=0;entryDy=0;exitX=0.5;exitY=1;exitDx=0;exitDy=0;" edge="1" parent="Xk5Clc4Wt-X5QIzoGa22-1" source="Xk5Clc4Wt-X5QIzoGa22-45" target="Xk5Clc4Wt-X5QIzoGa22-51">
          <mxGeometry relative="1" as="geometry">
            <mxPoint x="139" y="394" as="sourcePoint" />
            <mxPoint x="140" y="490" as="targetPoint" />
            <Array as="points">
              <mxPoint x="342" y="90" />
              <mxPoint x="410" y="90" />
              <mxPoint x="410" y="100" />
            </Array>
          </mxGeometry>
        </mxCell>
        <mxCell id="Xk5Clc4Wt-X5QIzoGa22-64" value="" style="shape=module;jettyWidth=10;jettyHeight=4;fillColor=#57BCFF;" vertex="1" parent="Xk5Clc4Wt-X5QIzoGa22-1">
          <mxGeometry x="514.99" y="114.5" width="18.38" height="20" as="geometry" />
        </mxCell>
        <mxCell id="Xk5Clc4Wt-X5QIzoGa22-65" value="" style="shape=module;jettyWidth=10;jettyHeight=4;fillColor=#57BCFF;" vertex="1" parent="Xk5Clc4Wt-X5QIzoGa22-1">
          <mxGeometry x="161.62" y="101" width="18.38" height="20" as="geometry" />
        </mxCell>
        <mxCell id="Xk5Clc4Wt-X5QIzoGa22-67" value="&lt;font style=&quot;font-size: 12px;&quot;&gt;&amp;lt;&amp;lt;component&amp;gt;&amp;gt;&lt;/font&gt;" style="text;html=1;align=center;verticalAlign=middle;resizable=0;points=[];autosize=1;strokeColor=none;fillColor=none;fontSize=16;" vertex="1" parent="Xk5Clc4Wt-X5QIzoGa22-1">
          <mxGeometry x="423.37" y="104.5" width="110" height="30" as="geometry" />
        </mxCell>
        <mxCell id="Xk5Clc4Wt-X5QIzoGa22-66" value="&lt;font style=&quot;font-size: 12px;&quot;&gt;&amp;lt;&amp;lt;component&amp;gt;&amp;gt;&lt;/font&gt;" style="text;html=1;align=center;verticalAlign=middle;resizable=0;points=[];autosize=1;strokeColor=none;fillColor=none;fontSize=16;" vertex="1" parent="Xk5Clc4Wt-X5QIzoGa22-1">
          <mxGeometry x="77" y="94.5" width="110" height="30" as="geometry" />
        </mxCell>
        <mxCell id="Xk5Clc4Wt-X5QIzoGa22-22" value="" style="ellipse;whiteSpace=wrap;html=1;aspect=fixed;fillColor=#57BCFF;" vertex="1" parent="1">
          <mxGeometry x="660" y="80" width="23.68421052631579" height="23.68421052631579" as="geometry" />
        </mxCell>
        <mxCell id="Xk5Clc4Wt-X5QIzoGa22-23" style="edgeStyle=none;curved=1;rounded=0;orthogonalLoop=1;jettySize=auto;html=1;exitX=0.5;exitY=0;exitDx=0;exitDy=0;entryX=0.5;entryY=1;entryDx=0;entryDy=0;fontSize=12;shape=link;strokeColor=none;" edge="1" parent="1" source="Xk5Clc4Wt-X5QIzoGa22-9" target="Xk5Clc4Wt-X5QIzoGa22-22">
          <mxGeometry relative="1" as="geometry" />
        </mxCell>
        <mxCell id="Xk5Clc4Wt-X5QIzoGa22-24" style="edgeStyle=orthogonalEdgeStyle;rounded=0;orthogonalLoop=1;jettySize=auto;html=1;exitX=0.5;exitY=1;exitDx=0;exitDy=0;entryX=0.5;entryY=0;entryDx=0;entryDy=0;endArrow=none;endFill=0;" edge="1" parent="1" source="Xk5Clc4Wt-X5QIzoGa22-22" target="Xk5Clc4Wt-X5QIzoGa22-9">
          <mxGeometry relative="1" as="geometry">
            <mxPoint x="988.202682854361" y="70" as="sourcePoint" />
            <mxPoint x="987.5726828543611" y="168.81578947368416" as="targetPoint" />
            <Array as="points">
              <mxPoint x="672" y="140" />
              <mxPoint x="672" y="140" />
            </Array>
          </mxGeometry>
        </mxCell>
        <mxCell id="Xk5Clc4Wt-X5QIzoGa22-25" value="&lt;b&gt;&lt;font style=&quot;font-size: 13px;&quot;&gt;User UI&lt;/font&gt;&lt;/b&gt;" style="text;html=1;align=center;verticalAlign=middle;resizable=0;points=[];autosize=1;strokeColor=none;fillColor=none;fontSize=16;" vertex="1" parent="1">
          <mxGeometry x="640" y="50" width="70" height="30" as="geometry" />
        </mxCell>
        <mxCell id="Xk5Clc4Wt-X5QIzoGa22-57" style="edgeStyle=orthogonalEdgeStyle;rounded=0;orthogonalLoop=1;jettySize=auto;html=1;endArrow=none;endFill=0;exitX=0.5;exitY=1;exitDx=0;exitDy=0;" edge="1" parent="1" source="Xk5Clc4Wt-X5QIzoGa22-52">
          <mxGeometry relative="1" as="geometry">
            <mxPoint x="709" y="584" as="sourcePoint" />
            <mxPoint x="672" y="390" as="targetPoint" />
            <Array as="points" />
          </mxGeometry>
        </mxCell>
      </root>
    </mxGraphModel>
  </diagram>
</mxfile>
